<svg xmlns="http://www.w3.org/2000/svg" viewBox="0 0 48.14 48.14"><defs><style>.cls-1{fill:none;}.cls-2,.cls-3{fill:#fff;}.cls-2{fill-rule:evenodd;}</style></defs><g id="Layer_2" data-name="Layer 2"><g id="Moments"><rect class="cls-1" width="48.14" height="48.14"/><path class="cls-2" d="M24.07,10h0a1,1,0,0,1-1-1V5a1,1,0,0,1,1-1h0a1,1,0,0,1,1,1V9A1,1,0,0,1,24.07,10Z"/><path class="cls-1" d="M24.07,14a10,10,0,0,0-10,9h20A10,10,0,0,0,24.07,14Z"/><path class="cls-1" d="M24.07,34.1a10.05,10.05,0,0,0,10-9h-20A10.05,10.05,0,0,0,24.07,34.1Z"/><path class="cls-3" d="M24.07,14a10,10,0,0,1,10,9h2a12,12,0,0,0-24,0h2A10,10,0,0,1,24.07,14Z"/><path class="cls-3" d="M43.12,23.06H36.05c0,.34.05.67.05,1s0,.67-.05,1h7.07a1,1,0,0,0,0-2Z"/><path class="cls-3" d="M14,24.07c0,.34,0,.67.05,1h20c0-.33.05-.66.05-1s0-.68-.05-1h-20C14.06,23.39,14,23.73,14,24.07Z"/><path class="cls-3" d="M12.09,23.06H5a1,1,0,1,0,0,2h7.07c0-.33-.06-.66-.06-1S12.06,23.4,12.09,23.06Z"/><path class="cls-3" d="M14,24.07c0-.34,0-.68.05-1h-2c0,.34-.06.67-.06,1s0,.67.06,1h2C14.06,24.74,14,24.41,14,24.07Z"/><path class="cls-3" d="M36.05,23.06h-2c0,.33.05.67.05,1s0,.67-.05,1h2c0-.33.05-.66.05-1S36.08,23.4,36.05,23.06Z"/><path class="cls-2" d="M34,14.14h0a1,1,0,0,1,0-1.42l2.83-2.83a1,1,0,0,1,1.42,0h0a1,1,0,0,1,0,1.41l-2.84,2.84A1,1,0,0,1,34,14.14Z"/><path class="cls-2" d="M14.14,14.14h0a1,1,0,0,1-1.42,0L9.89,11.3a1,1,0,0,1,0-1.41h0a1,1,0,0,1,1.41,0l2.84,2.83A1,1,0,0,1,14.14,14.14Z"/></g></g></svg>