<svg xmlns="http://www.w3.org/2000/svg" viewBox="0 0 38.99 38.99"><defs><style>.cls-1,.cls-2{fill:#fff;}.cls-1{fill-rule:evenodd;}</style></defs><g id="Layer_2" data-name="Layer 2"><g id="Moments"><path class="cls-1" d="M19.54,33.09h0a1,1,0,0,1,1,1l0,3.94a1,1,0,0,1-1,1h0a1,1,0,0,1-1-1l0-3.94A1,1,0,0,1,19.54,33.09Z" transform="translate(0 0)"/><path class="cls-1" d="M9.92,29.14h0a1,1,0,0,1,0,1.39L7.1,33.29a1,1,0,0,1-1.39,0h0a1,1,0,0,1,0-1.39l2.81-2.76A1,1,0,0,1,9.92,29.14Z" transform="translate(0 0)"/><path class="cls-1" d="M5.9,19.54h0a1,1,0,0,1-1,1L1,20.48a1,1,0,0,1-1-1H0a1,1,0,0,1,1-1l3.94,0A1,1,0,0,1,5.9,19.54Z" transform="translate(0 0)"/><path class="cls-1" d="M9.85,9.92h0a1,1,0,0,1-1.39,0L5.7,7.1a1,1,0,0,1,0-1.39h0a1,1,0,0,1,1.39,0L9.86,8.53A1,1,0,0,1,9.85,9.92Z" transform="translate(0 0)"/><path class="cls-1" d="M19.45,5.9h0a1,1,0,0,1-1-1l0-3.93a1,1,0,0,1,1-1h0a1,1,0,0,1,1,1l0,3.94A1,1,0,0,1,19.45,5.9Z" transform="translate(0 0)"/><path class="cls-1" d="M29.07,9.85h0a1,1,0,0,1,0-1.39l2.8-2.76a1,1,0,0,1,1.39,0h0a1,1,0,0,1,0,1.39l-2.8,2.76A1,1,0,0,1,29.07,9.85Z" transform="translate(0 0)"/><path class="cls-1" d="M33.09,19.45h0a1,1,0,0,1,1-1l3.94,0a1,1,0,0,1,1,1h0a1,1,0,0,1-1,1l-3.94,0A1,1,0,0,1,33.09,19.45Z" transform="translate(0 0)"/><path class="cls-1" d="M29.14,29.07h0a1,1,0,0,1,1.39,0l2.76,2.8a1,1,0,0,1,0,1.39h0a1,1,0,0,1-1.39,0l-2.76-2.8A1,1,0,0,1,29.14,29.07Z" transform="translate(0 0)"/><path class="cls-2" d="M19.5,9.92a9.79,9.79,0,1,1-9.79,9.79A9.81,9.81,0,0,1,19.5,9.92m0-2A11.76,11.76,0,1,0,31.25,19.71,11.76,11.76,0,0,0,19.5,8Z" transform="translate(0 0)"/></g></g></svg>