<svg xmlns="http://www.w3.org/2000/svg" viewBox="0 0 40.11 39.93"><defs><style>.cls-1,.cls-2{fill:#fff;}.cls-2{fill-rule:evenodd;}</style></defs><g id="Layer_2" data-name="Layer 2"><g id="Example_Icons" data-name="Example Icons"><path class="cls-1" d="M18.05,2a12,12,0,0,1,11.67,9.13l.36,1.47,1.52.05a6.71,6.71,0,0,1-.21,13.41H6.52a4.51,4.51,0,0,1-1.68-8.69l1.4-.56-.15-1.51A11.43,11.43,0,0,1,6,14a12,12,0,0,1,12-12m0-2A14,14,0,0,0,4,14a14.52,14.52,0,0,0,.08,1.48A6.51,6.51,0,0,0,6.52,28.08H31.39a8.71,8.71,0,0,0,.27-17.42A14,14,0,0,0,18.05,0Z"/><path class="cls-2" d="M19.12,34.18a1,1,0,0,1-.92-1.39l1-2.32a1,1,0,0,1,1.85.77l-1,2.32A1,1,0,0,1,19.12,34.18Zm-6.56-.62.95-2.32A1,1,0,0,0,13,29.93a1,1,0,0,0-1.31.54l-1,2.32a1,1,0,0,0,.93,1.39A1,1,0,0,0,12.56,33.56Zm2.29,5.75,1-2.31A1,1,0,0,0,14,36.23l-1,2.32a1,1,0,0,0,.54,1.31,1.07,1.07,0,0,0,.39.07A1,1,0,0,0,14.85,39.31Zm-7.5,0L8.3,37a1,1,0,1,0-1.85-.77l-1,2.32A1,1,0,0,0,6,39.86a1,1,0,0,0,.38.07A1,1,0,0,0,7.35,39.31ZM5.06,33.56l1-2.32a1,1,0,0,0-1.85-.77l-1,2.32a1,1,0,0,0,.54,1.31,1.09,1.09,0,0,0,.39.08A1,1,0,0,0,5.06,33.56Zm30,0,1-2.32a1,1,0,1,0-1.85-.77l-1,2.32a1,1,0,0,0,.54,1.31,1.09,1.09,0,0,0,.39.08A1,1,0,0,0,35,33.56Zm-7.49,0,1-2.32a1,1,0,1,0-1.85-.77l-1,2.32a1,1,0,0,0,.54,1.31,1.08,1.08,0,0,0,.38.08A1,1,0,0,0,27.54,33.56Zm2.33,5.75,1-2.31A1,1,0,1,0,29,36.23l-1,2.32a1,1,0,0,0,.54,1.31,1.07,1.07,0,0,0,.39.07A1,1,0,0,0,29.87,39.31Zm-7.51,0,1-2.31a1,1,0,1,0-1.85-.77l-1,2.32a1,1,0,0,0,.54,1.31,1.07,1.07,0,0,0,.39.07A1,1,0,0,0,22.36,39.31Z"/></g></g></svg>