<svg xmlns="http://www.w3.org/2000/svg" xmlns:xlink="http://www.w3.org/1999/xlink" viewBox="0 0 26.75 35.42"><defs><style>.cls-1,.cls-2{fill:none;}.cls-1{clip-rule:evenodd;}.cls-3{clip-path:url(#clip-path);}.cls-4{clip-path:url(#clip-path-2);}.cls-5{fill:#fff;fill-rule:evenodd;}</style><clipPath id="clip-path" transform="translate(-0.81 4.38)"><polygon class="cls-1" points="0 7.63 14.29 0 28.59 7.63 28.59 25.46 14.29 33.13 0 25.32 0 7.63"/></clipPath><clipPath id="clip-path-2" transform="translate(-0.81 4.38)"><rect class="cls-2" y="-2.87" width="28.59" height="34.55"/></clipPath></defs><g id="Layer_2" data-name="Layer 2"><g id="Moments"><g class="cls-3"><g class="cls-4"><g id="_Grid_Repeat_" data-name="&lt;Grid Repeat&gt;"><path class="cls-5" d="M3.94-3.51,2-4.32a.85.85,0,0,0-1.11.46.85.85,0,0,0,.46,1.11l2,.81A.85.85,0,0,0,4.4-2.4a.77.77,0,0,0,.07-.32A.85.85,0,0,0,3.94-3.51Z" transform="translate(-0.81 4.38)"/></g><g id="_Grid_Repeat_2" data-name="&lt;Grid Repeat&gt;"><path class="cls-5" d="M9.72-.22,7.76-1a.85.85,0,0,0-1.11.46A.85.85,0,0,0,7.11.54l2,.81A.85.85,0,0,0,10.18.89.87.87,0,0,0,9.72-.22Z" transform="translate(-0.81 4.38)"/></g><g id="_Grid_Repeat_3" data-name="&lt;Grid Repeat&gt;"><path class="cls-5" d="M15.49-3.51l-2-.81a.85.85,0,0,0-1.11.46.86.86,0,0,0,.46,1.11l2,.81A.85.85,0,0,0,16-2.4,1,1,0,0,0,16-2.72.85.85,0,0,0,15.49-3.51Z" transform="translate(-0.81 4.38)"/></g><g id="_Grid_Repeat_4" data-name="&lt;Grid Repeat&gt;"><path class="cls-5" d="M21.26-.22l-2-.81a.85.85,0,0,0-1.11.46A.85.85,0,0,0,18.66.54l1.95.81A.85.85,0,0,0,21.72.89a.71.71,0,0,0,.07-.32A.85.85,0,0,0,21.26-.22Z" transform="translate(-0.81 4.38)"/></g><g id="_Grid_Repeat_5" data-name="&lt;Grid Repeat&gt;"><path class="cls-5" d="M27-3.51l-2-.81A.85.85,0,0,0,24-3.86a.85.85,0,0,0,.46,1.11l2,.81A.85.85,0,0,0,27.5-2.4a1,1,0,0,0,.06-.32A.86.86,0,0,0,27-3.51Z" transform="translate(-0.81 4.38)"/></g><g id="_Grid_Repeat_6" data-name="&lt;Grid Repeat&gt;"><path class="cls-5" d="M3.94,3.07,2,2.26a.85.85,0,0,0-.65,1.57l2,.81A.85.85,0,0,0,4.4,4.18a.71.71,0,0,0,.07-.32A.85.85,0,0,0,3.94,3.07Z" transform="translate(-0.81 4.38)"/></g><g id="_Grid_Repeat_7" data-name="&lt;Grid Repeat&gt;"><path class="cls-5" d="M9.72,6.37l-2-.82A.86.86,0,0,0,6.65,6a.85.85,0,0,0,.46,1.11l2,.81a.85.85,0,0,0,1.11-.46.87.87,0,0,0,.06-.32A.85.85,0,0,0,9.72,6.37Z" transform="translate(-0.81 4.38)"/></g><g id="_Grid_Repeat_8" data-name="&lt;Grid Repeat&gt;"><path class="cls-5" d="M15.49,3.07l-2-.81a.85.85,0,0,0-1.11.46.86.86,0,0,0,.46,1.11l2,.81A.85.85,0,0,0,16,4.18.87.87,0,0,0,16,3.86.85.85,0,0,0,15.49,3.07Z" transform="translate(-0.81 4.38)"/></g><g id="_Grid_Repeat_9" data-name="&lt;Grid Repeat&gt;"><path class="cls-5" d="M21.26,6.37l-2-.82A.86.86,0,0,0,18.2,6a.85.85,0,0,0,.46,1.11l1.95.81a.84.84,0,0,0,1.11-.46.71.71,0,0,0,.07-.32A.84.84,0,0,0,21.26,6.37Z" transform="translate(-0.81 4.38)"/></g><g id="_Grid_Repeat_10" data-name="&lt;Grid Repeat&gt;"><path class="cls-5" d="M27,3.07l-2-.81a.85.85,0,0,0-.65,1.57l2,.81a.85.85,0,0,0,1.11-.46A.87.87,0,0,0,27,3.07Z" transform="translate(-0.81 4.38)"/></g><g id="_Grid_Repeat_11" data-name="&lt;Grid Repeat&gt;"><path class="cls-5" d="M3.94,9.66,2,8.84A.86.86,0,0,0,.88,9.3a.85.85,0,0,0,.46,1.11l2,.81a.84.84,0,0,0,1.11-.46.71.71,0,0,0,.07-.32A.84.84,0,0,0,3.94,9.66Z" transform="translate(-0.81 4.38)"/></g><g id="_Grid_Repeat_12" data-name="&lt;Grid Repeat&gt;"><path class="cls-5" d="M9.72,13l-2-.81a.85.85,0,1,0-.65,1.56l2,.81a.85.85,0,0,0,1.11-.45,1,1,0,0,0,.06-.33A.85.85,0,0,0,9.72,13Z" transform="translate(-0.81 4.38)"/></g><g id="_Grid_Repeat_13" data-name="&lt;Grid Repeat&gt;"><path class="cls-5" d="M15.49,9.66l-2-.82a.85.85,0,0,0-.65,1.57l2,.81A.85.85,0,0,0,16,10.76a.87.87,0,0,0,.06-.32A.83.83,0,0,0,15.49,9.66Z" transform="translate(-0.81 4.38)"/></g><g id="_Grid_Repeat_14" data-name="&lt;Grid Repeat&gt;"><path class="cls-5" d="M21.26,13l-2-.81a.85.85,0,1,0-.65,1.56l1.95.81a.85.85,0,0,0,1.11-.45.78.78,0,0,0,.07-.33A.84.84,0,0,0,21.26,13Z" transform="translate(-0.81 4.38)"/></g><g id="_Grid_Repeat_15" data-name="&lt;Grid Repeat&gt;"><path class="cls-5" d="M27,9.66l-2-.82A.86.86,0,0,0,24,9.3a.85.85,0,0,0,.46,1.11l2,.81a.85.85,0,0,0,1.11-.46.87.87,0,0,0,.06-.32A.85.85,0,0,0,27,9.66Z" transform="translate(-0.81 4.38)"/></g><g id="_Grid_Repeat_16" data-name="&lt;Grid Repeat&gt;"><path class="cls-5" d="M3.94,16.24,2,15.43A.85.85,0,1,0,1.34,17l2,.81a.85.85,0,0,0,1.11-.45A.78.78,0,0,0,4.47,17,.84.84,0,0,0,3.94,16.24Z" transform="translate(-0.81 4.38)"/></g><g id="_Grid_Repeat_17" data-name="&lt;Grid Repeat&gt;"><path class="cls-5" d="M9.72,19.53l-2-.81a.85.85,0,1,0-.65,1.56l2,.82a.86.86,0,0,0,1.11-.46,1,1,0,0,0,.06-.33A.86.86,0,0,0,9.72,19.53Z" transform="translate(-0.81 4.38)"/></g><g id="_Grid_Repeat_18" data-name="&lt;Grid Repeat&gt;"><path class="cls-5" d="M15.49,16.24l-2-.81a.85.85,0,0,0-1.11.46.85.85,0,0,0,.46,1.1l2,.81A.85.85,0,0,0,16,17.35,1,1,0,0,0,16,17,.83.83,0,0,0,15.49,16.24Z" transform="translate(-0.81 4.38)"/></g><g id="_Grid_Repeat_19" data-name="&lt;Grid Repeat&gt;"><path class="cls-5" d="M21.26,19.53l-2-.81a.85.85,0,1,0-.65,1.56l1.95.82a.86.86,0,0,0,1.11-.46.78.78,0,0,0,.07-.33A.85.85,0,0,0,21.26,19.53Z" transform="translate(-0.81 4.38)"/></g><g id="_Grid_Repeat_20" data-name="&lt;Grid Repeat&gt;"><path class="cls-5" d="M27,16.24l-2-.81A.85.85,0,1,0,24.43,17l2,.81a.85.85,0,0,0,1.11-.45,1,1,0,0,0,.06-.33A.85.85,0,0,0,27,16.24Z" transform="translate(-0.81 4.38)"/></g><g id="_Grid_Repeat_21" data-name="&lt;Grid Repeat&gt;"><path class="cls-5" d="M3.94,22.82,2,22a.85.85,0,1,0-.65,1.57l2,.81a.85.85,0,0,0,1.11-.46.78.78,0,0,0,.07-.33A.85.85,0,0,0,3.94,22.82Z" transform="translate(-0.81 4.38)"/></g><g id="_Grid_Repeat_22" data-name="&lt;Grid Repeat&gt;"><path class="cls-5" d="M9.72,26.11l-2-.81a.85.85,0,0,0-.65,1.57l2,.81a.85.85,0,0,0,1.11-.46,1,1,0,0,0,.06-.33A.86.86,0,0,0,9.72,26.11Z" transform="translate(-0.81 4.38)"/></g><g id="_Grid_Repeat_23" data-name="&lt;Grid Repeat&gt;"><path class="cls-5" d="M15.49,22.82l-2-.81a.85.85,0,0,0-1.11.46.87.87,0,0,0,.46,1.11l2,.81A.85.85,0,0,0,16,23.93,1,1,0,0,0,16,23.6.84.84,0,0,0,15.49,22.82Z" transform="translate(-0.81 4.38)"/></g><g id="_Grid_Repeat_24" data-name="&lt;Grid Repeat&gt;"><path class="cls-5" d="M21.26,26.11l-2-.81a.85.85,0,1,0-.65,1.57l1.95.81a.85.85,0,0,0,1.11-.46.78.78,0,0,0,.07-.33A.85.85,0,0,0,21.26,26.11Z" transform="translate(-0.81 4.38)"/></g><g id="_Grid_Repeat_25" data-name="&lt;Grid Repeat&gt;"><path class="cls-5" d="M27,22.82l-2-.81a.85.85,0,1,0-.65,1.57l2,.81a.85.85,0,0,0,1.11-.46,1,1,0,0,0,.06-.33A.86.86,0,0,0,27,22.82Z" transform="translate(-0.81 4.38)"/></g><g id="_Grid_Repeat_26" data-name="&lt;Grid Repeat&gt;"><path class="cls-5" d="M3.94,29.4,2,28.59a.85.85,0,1,0-.65,1.57l2,.81a.85.85,0,0,0,1.11-.46.77.77,0,0,0,.07-.32A.85.85,0,0,0,3.94,29.4Z" transform="translate(-0.81 4.38)"/></g><g id="_Grid_Repeat_27" data-name="&lt;Grid Repeat&gt;"><path class="cls-5" d="M15.49,29.4l-2-.81a.85.85,0,0,0-1.11.46.86.86,0,0,0,.46,1.11l2,.81A.85.85,0,0,0,16,30.51a1,1,0,0,0,.06-.32A.85.85,0,0,0,15.49,29.4Z" transform="translate(-0.81 4.38)"/></g><g id="_Grid_Repeat_28" data-name="&lt;Grid Repeat&gt;"><path class="cls-5" d="M27,29.4l-2-.81a.85.85,0,1,0-.65,1.57l2,.81a.85.85,0,0,0,1.11-.46,1,1,0,0,0,.06-.32A.86.86,0,0,0,27,29.4Z" transform="translate(-0.81 4.38)"/></g></g></g></g></g></svg>